REM DIRINDEX 1\5,1\2\6,1\2\7,1\3\8,1\3\9,1\4\10,1\4\11,1\4\12
REM DIRNAME folder01,folder02,folder03,folder04,folder05,folder06,folder07,folder08,folder09,folder10,folder11,folder12
TITLE ""
FILE "EJE_DB3000_5th_5C_02.mp3" MP3
  TRACK 01 AUDIO
    TITLE "0:"
    INDEX 01 00:00:00
  TRACK 02 AUDIO
    TITLE "10:cjc026_10161"
    INDEX 01 00:00:07
  TRACK 03 AUDIO
    TITLE "0:"
    INDEX 01 00:00:68
  TRACK 04 AUDIO
    TITLE "11:cjc026_10162"
    INDEX 01 00:01:21
  TRACK 05 AUDIO
    TITLE "0:"
    INDEX 01 00:02:18
  TRACK 06 AUDIO
    TITLE "12:cjc026_10163"
    INDEX 01 00:02:47
  TRACK 07 AUDIO
    TITLE "0:"
    INDEX 01 00:03:33
  TRACK 08 AUDIO
    TITLE "10:cjc026_10164"
    INDEX 01 00:03:61
  TRACK 09 AUDIO
    TITLE "0:"
    INDEX 01 00:04:54
  TRACK 10 AUDIO
    TITLE "11:cjc026_10165"
    INDEX 01 00:05:05
  TRACK 11 AUDIO
    TITLE "0:"
    INDEX 01 00:06:22
  TRACK 12 AUDIO
    TITLE "12:cjc026_10166"
    INDEX 01 00:06:49
  TRACK 13 AUDIO
    TITLE "0:"
    INDEX 01 00:07:43
  TRACK 14 AUDIO
    TITLE "10:cjc026_10167"
    INDEX 01 00:07:68
  TRACK 15 AUDIO
    TITLE "0:"
    INDEX 01 00:08:60
  TRACK 16 AUDIO
    TITLE "11:cjc026_10168"
    INDEX 01 00:09:12
  TRACK 17 AUDIO
    TITLE "0:"
    INDEX 01 00:09:67
  TRACK 18 AUDIO
    TITLE "12:cjc026_10169"
    INDEX 01 00:10:18
  TRACK 19 AUDIO
    TITLE "0:"
    INDEX 01 00:11:11
  TRACK 20 AUDIO
    TITLE "10:cjc026_10170"
    INDEX 01 00:11:37
  TRACK 21 AUDIO
    TITLE "0:"
    INDEX 01 00:12:24
  TRACK 22 AUDIO
    TITLE "11:cjc026_10171"
    INDEX 01 00:12:52
  TRACK 23 AUDIO
    TITLE "0:"
    INDEX 01 00:13:57
  TRACK 24 AUDIO
    TITLE "12:cjc026_10172"
    INDEX 01 00:14:09
  TRACK 25 AUDIO
    TITLE "0:"
    INDEX 01 00:14:72
  TRACK 26 AUDIO
    TITLE "10:cjc026_10173"
    INDEX 01 00:15:23
  TRACK 27 AUDIO
    TITLE "0:"
    INDEX 01 00:16:12
  TRACK 28 AUDIO
    TITLE "11:cjc026_10174"
    INDEX 01 00:16:38
  TRACK 29 AUDIO
    TITLE "0:"
    INDEX 01 00:17:33
  TRACK 30 AUDIO
    TITLE "12:cjc026_10175"
    INDEX 01 00:17:59
  TRACK 31 AUDIO
    TITLE "0:"
    INDEX 01 00:18:48
  TRACK 32 AUDIO
    TITLE "10:cjc026_10176"
    INDEX 01 00:18:74
  TRACK 33 AUDIO
    TITLE "0:"
    INDEX 01 00:19:65
  TRACK 34 AUDIO
    TITLE "11:cjc026_10177"
    INDEX 01 00:20:16
  TRACK 35 AUDIO
    TITLE "0:"
    INDEX 01 00:21:04
  TRACK 36 AUDIO
    TITLE "12:cjc026_10178"
    INDEX 01 00:21:31
  TRACK 37 AUDIO
    TITLE "0:"
    INDEX 01 00:22:23
  TRACK 38 AUDIO
    TITLE "10:cjc026_10179"
    INDEX 01 00:22:48
  TRACK 39 AUDIO
    TITLE "0:"
    INDEX 01 00:23:38
  TRACK 40 AUDIO
    TITLE "11:cjc026_10180"
    INDEX 01 00:23:63
  TRACK 41 AUDIO
    TITLE "0:"
    INDEX 01 00:24:72
  TRACK 42 AUDIO
    TITLE "12:cjc026_10181"
    INDEX 01 00:25:23
  TRACK 43 AUDIO
    TITLE "0:"
    INDEX 01 00:26:13
  TRACK 44 AUDIO
    TITLE "10:cjc026_10182"
    INDEX 01 00:26:38
  TRACK 45 AUDIO
    TITLE "0:"
    INDEX 01 00:27:30
  TRACK 46 AUDIO
    TITLE "11:cjc026_10183"
    INDEX 01 00:27:55
  TRACK 47 AUDIO
    TITLE "0:"
    INDEX 01 00:28:60
  TRACK 48 AUDIO
    TITLE "12:cjc026_10184"
    INDEX 01 00:29:11
  TRACK 49 AUDIO
    TITLE "0:"
    INDEX 01 00:30:03
  TRACK 50 AUDIO
    TITLE "10:cjc026_10185"
    INDEX 01 00:30:28
  TRACK 51 AUDIO
    TITLE "0:"
    INDEX 01 00:31:26
  TRACK 52 AUDIO
    TITLE "11:cjc026_10186"
    INDEX 01 00:31:53
  TRACK 53 AUDIO
    TITLE "0:"
    INDEX 01 00:32:39
  TRACK 54 AUDIO
    TITLE "12:cjc026_10187"
    INDEX 01 00:32:64
  TRACK 55 AUDIO
    TITLE "0:"
    INDEX 01 00:33:62
  TRACK 56 AUDIO
    TITLE "10:cjc026_10188"
    INDEX 01 00:34:14
  TRACK 57 AUDIO
    TITLE "0:"
    INDEX 01 00:35:08
  TRACK 58 AUDIO
    TITLE "11:cjc026_10189"
    INDEX 01 00:35:33
  TRACK 59 AUDIO
    TITLE "0:"
    INDEX 01 00:36:68
  TRACK 60 AUDIO
    TITLE "12:cjc026_10190"
    INDEX 01 00:37:16
  TRACK 61 AUDIO
    TITLE "0:"
    INDEX 01 00:38:12
  TRACK 62 AUDIO
    TITLE "10:cjc026_10191"
    INDEX 01 00:38:35
  TRACK 63 AUDIO
    TITLE "0:"
    INDEX 01 00:39:29
  TRACK 64 AUDIO
    TITLE "11:cjc026_10192"
    INDEX 01 00:39:51
  TRACK 65 AUDIO
    TITLE "0:"
    INDEX 01 00:40:66
  TRACK 66 AUDIO
    TITLE "12:cjc026_10193"
    INDEX 01 00:41:12
  TRACK 67 AUDIO
    TITLE "0:"
    INDEX 01 00:42:06
  TRACK 68 AUDIO
    TITLE "10:cjc026_10194"
    INDEX 01 00:42:31
  TRACK 69 AUDIO
    TITLE "0:"
    INDEX 01 00:43:17
  TRACK 70 AUDIO
    TITLE "11:cjc026_10195"
    INDEX 01 00:43:44
  TRACK 71 AUDIO
    TITLE "0:"
    INDEX 01 00:44:38
  TRACK 72 AUDIO
    TITLE "12:cjc026_10196"
    INDEX 01 00:44:65
  TRACK 73 AUDIO
    TITLE "0:"
    INDEX 01 00:45:51
